<svg version="1.2" xmlns="http://www.w3.org/2000/svg" viewBox="0 0 22 22" width="22" height="22"><style>.a{fill:#fff}</style><path fill-rule="evenodd" class="a" d="m22 2v18c0 1.1-0.9 2-2 2h-18c-1.1 0-2-0.9-2-2v-18c0-1.1 0.9-2 2-2h18c1.1 0 2 0.9 2 2zm-15 6.5h-3v9.5h3zm0.2-3.1c0-0.9-0.8-1.7-1.8-1.7-0.9 0-1.7 0.8-1.7 1.7 0 1 0.8 1.7 1.7 1.7 1 0 1.8-0.7 1.8-1.7zm10.8 7.4c0-2.6-0.5-4.5-3.5-4.5-1.5 0-2.4 0.8-2.8 1.5h-0.1v-1.3h-2.8v9.5h3v-4.7c0-1.2 0.2-2.4 1.7-2.4 1.5 0 1.6 1.4 1.6 2.5v4.6h2.9z"/></svg>