<svg version="1.2" xmlns="http://www.w3.org/2000/svg" viewBox="0 0 28 24" width="28" height="24"><style>.a{fill:#fff}</style><path class="a" d="m24.3 6.7q0.1 0.3 0.1 0.7c0 7-5.4 15.2-15.2 15.2-3 0-5.8-0.9-8.2-2.4q0.6 0 1.3 0c2.5 0 4.8-0.8 6.6-2.2-2.3-0.1-4.3-1.6-5-3.7q0.5 0 1 0.1 0.7-0.1 1.4-0.2c-2.4-0.5-4.3-2.7-4.3-5.3q0 0 0 0c0.8 0.4 1.6 0.6 2.5 0.6-1.5-0.9-2.4-2.6-2.4-4.4 0-1 0.3-1.9 0.7-2.7 2.6 3.2 6.6 5.4 11 5.6q-0.1-0.6-0.1-1.2c0-3 2.4-5.4 5.3-5.4 1.5 0 2.9 0.7 3.9 1.7q1.8-0.3 3.4-1.3c-0.4 1.3-1.3 2.3-2.4 3q1.7-0.2 3.1-0.9c-0.7 1.1-1.6 2-2.7 2.8z"/></svg>